{
  "asset": {
    "version": "2.0",
    "generator": "v3d.GLTFExporter"
  },
  "scenes": [
    {
      "name": "AuxScene",
      "nodes": [
        0
      ]
    }
  ],
  "scene": 0,
  "nodes": [
    {
      "matrix": [
        0.1,
        0,
        0,
        0,
        0,
        -0.1,
        5.665538897647979e-17,
        0,
        0,
        -5.665538897647979e-17,
        -0.1,
        0,
        0,
        0,
        0,
        1
      ],
      "name": "Merged Mesh",
      "mesh": 0
    }
  ],
  "bufferViews": [
    {
      "buffer": 0,
      "byteOffset": 0,
      "byteLength": 138540,
      "target": 34962,
      "byteStride": 12
    },
    {
      "buffer": 0,
      "byteOffset": 138540,
      "byteLength": 92360,
      "target": 34962,
      "byteStride": 8
    },
    {
      "buffer": 0,
      "byteOffset": 230900,
      "byteLength": 138540,
      "target": 34962,
      "byteStride": 12
    },
    {
      "buffer": 0,
      "byteOffset": 369440,
      "byteLength": 184720,
      "target": 34962,
      "byteStride": 16
    },
    {
      "buffer": 0,
      "byteOffset": 554160,
      "byteLength": 107040,
      "target": 34963
    }
  ],
  "buffers": [
    {
      "byteLength": 661200,
      "uri": "data:application/octet-stream;base64,"
    }
  ],
  "accessors": [
    {
      "bufferView": 0,
      "componentType": 5126,
      "count": 11545,
      "max": [
        101,
        73.33470153808594,
        16
      ],
      "min": [
        -101,
        -73.33470153808594,
        -16
      ],
      "type": "VEC3"
    },
    {
      "bufferView": 1,
      "componentType": 5126,
      "count": 11545,
      "max": [
        2.0199999809265137,
        1.4466913938522339
      ],
      "min": [
        -2.0199999809265137,
        -1.4466913938522339
      ],
      "type": "VEC2"
    },
    {
      "bufferView": 2,
      "componentType": 5126,
      "count": 11545,
      "max": [
        1,
        1,
        1
      ],
      "min": [
        -1,
        -1,
        -1
      ],
      "type": "VEC3"
    },
    {
      "bufferView": 3,
      "componentType": 5126,
      "count": 11545,
      "max": [
        1,
        1,
        0.5088390707969666,
        1
      ],
      "min": [
        -0.99945068359375,
        -0.7052330374717712,
        -0.8768417835235596,
        -1
      ],
      "type": "VEC4"
    },
    {
      "bufferView": 4,
      "componentType": 5123,
      "count": 53520,
      "max": [
        11544
      ],
      "min": [
        0
      ],
      "type": "SCALAR"
    }
  ],
  "materials": [
    {
      "pbrMetallicRoughness": {
        "baseColorFactor": [
          0.6583746671676636,
          0.42869019508361816,
          0.03820450231432915,
          1
        ],
        "metallicFactor": 1,
        "roughnessFactor": 0.15000000596046448
      },
      "name": "Gold_Clean_Optimised"
    }
  ],
  "meshes": [
    {
      "primitives": [
        {
          "mode": 4,
          "attributes": {
            "POSITION": 0,
            "TEXCOORD_0": 1,
            "NORMAL": 2,
            "TANGENT": 3
          },
          "indices": 4,
          "material": 0
        }
      ]
    }
  ]
}